<svg xmlns="http://www.w3.org/2000/svg" width="42.671" height="42.671">
    <path fill="#242424" fill-rule="evenodd" d="M15.999.004C7.179.004.003 7.179.003 15.999s7.176 15.996 15.996 15.996 15.996-7.176 15.996-15.996S24.819.004 15.999.004zm7.136 12.334c.007.159.011.318.011.478 0 4.865-3.703 10.475-10.476 10.475-2.079 0-4.015-.609-5.644-1.654.288.034.582.051.879.051a7.394 7.394 0 0 0 4.572-1.575 3.687 3.687 0 0 1-3.439-2.558 3.728 3.728 0 0 0 1.662-.062 3.684 3.684 0 0 1-2.952-3.656 3.672 3.672 0 0 0 1.667.46 3.68 3.68 0 0 1-1.637-3.064c0-.675.181-1.308.498-1.852a10.452 10.452 0 0 0 7.588 3.848 3.682 3.682 0 0 1 6.273-3.359 7.342 7.342 0 0 0 2.339-.893 3.695 3.695 0 0 1-1.619 2.037 7.337 7.337 0 0 0 2.114-.579 7.432 7.432 0 0 1-1.836 1.903z"/>
</svg>
