<svg xmlns="http://www.w3.org/2000/svg" width="180px" height="32px">
    <path fill="#FFF" fill-rule="evenodd" d="M160.987 19.752v4.591h-15.308V4.865h15.176v4.591h-10.003v2.948h9.056v4.265h-9.056v3.083h10.135zm-29.642 4.727l-7.66-19.614h5.857l4.278 12.334 4.29-12.334h5.739l-7.647 19.614h-4.857zM116.498 4.865h5.226v19.478h-5.226V4.865zm-16.703 0h5.225v14.738h9.149v4.74H99.795V4.865zM84.077 29c-7.903 0-14.311-6.492-14.311-14.5S76.174 0 84.077 0c7.904 0 14.312 6.492 14.312 14.5S91.981 29 84.077 29zm7.15-8.997h-7.471l3.105-2.335a21.693 21.693 0 0 0 1.817-1.513c.471-.448.898-.941 1.281-1.48.383-.538.66-1.117.833-1.737.172-.62.259-1.31.259-2.07 0-1.876-.614-3.4-1.842-4.571-1.227-1.172-2.826-1.758-4.797-1.758-1.674 0-3.06.338-4.158 1.013-1.098.675-2.164 1.747-3.199 3.217l3.382 3.035c.732-.904 1.367-1.547 1.906-1.927.538-.38 1.102-.57 1.691-.57.606 0 1.092.177 1.457.529.366.353.55.833.55 1.439 0 .589-.176 1.148-.527 1.677-.35.53-.952 1.139-1.806 1.827l-6.792 5.568v4.11h14.311v-4.454zm-27.341 4.34h-5.225v-7.294L51.487 4.865h5.963l3.856 7.104 3.896-7.104h5.858l-7.174 12.103v7.375zm-15.15 0l-1.382-3.477h-7.279l-1.342 3.477h-5.502L41.273 4.73h5.041l8.029 19.613h-5.607zm-4.988-13.216l-2.133 5.542h4.239l-2.106-5.542zM18.147 4.865h5.225v14.738h9.148v4.74H18.147V4.865zm-6.141 13.101c-1.206.521-2.599.781-4.179.781H5.235v5.596H.009V4.865h8.082c2.404 0 4.313.607 5.725 1.82 1.413 1.212 2.12 2.896 2.12 5.051 0 1.495-.354 2.777-1.06 3.846a6.407 6.407 0 0 1-2.87 2.384zM9.914 10.02c-.531-.448-1.271-.672-2.218-.672H5.235v5.202h2.487c.93 0 1.661-.233 2.192-.7.53-.467.796-1.103.796-1.908 0-.833-.266-1.473-.796-1.922z"/>
</svg>
