<svg xmlns="http://www.w3.org/2000/svg" width="82.658" height="42.671">
    <path fill="#A5C249" fill-rule="evenodd" d="M46.179 32c-4.716 0-8.578-2.123-11.247-6.172h-7.865C24.411 29.864 20.537 32 15.82 32 7.1 32 0 24.819 0 16 0 7.182 7.1.001 15.82.001l30.346.013C54.899.014 62 7.195 62 16c0 8.819-7.101 16-15.821 16zm0-28.775H15.82c-6.97 0-12.646 5.739-12.646 12.789 0 7.049 5.676 12.789 12.646 12.789 3.939 0 6.881-1.756 9.006-5.386a1.583 1.583 0 0 1 1.36-.786H35.8c.557 0 1.076.301 1.361.786 2.125 3.617 5.066 5.386 9.005 5.386 6.984 0 12.659-5.74 12.659-12.789 0-7.05-5.675-12.789-12.646-12.789zm5.248 14.335a2.124 2.124 0 0 1-2.112-2.136c0-1.18.945-2.136 2.112-2.136 1.166 0 2.112.956 2.112 2.136 0 1.18-.946 2.136-2.112 2.136zm-5.118 5.176a2.124 2.124 0 0 1-2.112-2.136c0-1.18.945-2.136 2.112-2.136 1.166 0 2.112.956 2.112 2.136 0 1.18-.946 2.136-2.112 2.136zm0-10.352a2.124 2.124 0 0 1-2.112-2.136c0-1.179.945-2.136 2.112-2.136 1.166 0 2.112.957 2.112 2.136 0 1.18-.946 2.136-2.112 2.136zm-5.105 5.176a2.124 2.124 0 0 1-2.113-2.136c0-1.18.946-2.136 2.113-2.136 1.166 0 2.112.956 2.112 2.136 0 1.18-.946 2.136-2.112 2.136zm-21.134-.511h-3.239v3.276c0 .891-.713 1.611-1.593 1.611a1.6 1.6 0 0 1-1.594-1.611v-3.276h-3.24a1.601 1.601 0 0 1-1.593-1.612c0-.891.712-1.612 1.593-1.612h3.24V10.55c0-.891.712-1.612 1.594-1.612.88 0 1.593.721 1.593 1.612v3.275h3.239c.882 0 1.594.708 1.594 1.612 0 .891-.712 1.612-1.594 1.612z"/>
</svg>
