<svg xmlns="http://www.w3.org/2000/svg" width="42.671" height="42.671">
    <path fill="#FFF" fill-rule="evenodd" d="M15.999 31.995c-8.82 0-15.996-7.176-15.996-15.996S7.179.004 15.999.004s15.996 7.175 15.996 15.995-7.176 15.996-15.996 15.996zm8.482-23.48c0-.679-.565-1.23-1.262-1.23H8.67c-.696 0-1.261.551-1.261 1.23v14.719c0 .68.565 1.231 1.261 1.231h14.549c.698 0 1.262-.552 1.262-1.231V8.515zm-5.177 13.151v-4.151c0-1.042-.373-1.754-1.306-1.754-.713 0-1.137.48-1.324.944-.068.165-.084.397-.084.628v4.334h-2.579s.034-7.031 0-7.758h2.579v1.098c.342-.528.955-1.281 2.323-1.281 1.697 0 2.97 1.109 2.97 3.491v4.449H19.304zm-2.715-6.659c-.004.01-.011.018-.016.027h.016v-.027zm-5.295-2.158h-.016c-.865 0-1.425-.596-1.425-1.34 0-.762.577-1.34 1.459-1.34.883 0 1.424.579 1.442 1.34 0 .744-.56 1.34-1.46 1.34zm1.29 8.818h-2.579v-7.758h2.579v7.758z"/>
</svg>
