<svg xmlns="http://www.w3.org/2000/svg" width="180" height="32" class="logo-img svg" src="assets/img/logo.svg"> <defs> <linearGradient id="a" x1="0%" y1="0%"> <stop offset="0%" stop-color="#A5C249"></stop> <stop offset="100%" stop-color="#0BD0D9"></stop> </linearGradient> </defs> <path fill="#1A9086" fill-rule="evenodd" d="M179.986 21.796v5.066h-17.115V5.369h16.968v5.066h-11.184v3.252h10.124v4.706h-10.124v3.403h11.331zm-33.14 5.216l-8.565-21.643h6.549l4.782 13.609 4.798-13.609h6.416l-8.55 21.643h-5.43zM130.247 5.369h5.842v21.493h-5.842V5.369zm-18.675 0h5.843v16.262h10.227v5.231h-16.07V5.369zM71.426 26.862h-5.842v-8.049L57.563 5.369h6.667l4.311 7.838 4.356-7.838h6.549l-8.02 13.354v8.139zm-16.938 0l-1.545-3.837h-8.138l-1.501 3.837h-6.151l8.991-21.643h5.636l8.977 21.643h-6.269zm-5.577-14.584l-2.384 6.115h4.738l-2.354-6.115zM20.289 5.369h5.842v16.262h10.227v5.231H20.289V5.369zm-6.865 14.455c-1.349.575-2.907.863-4.673.863H5.853v6.175H.01V5.369h9.036c2.688 0 4.821.669 6.401 2.007s2.369 3.196 2.369 5.574c0 1.65-.395 3.064-1.184 4.243-.79 1.18-1.86 2.057-3.208 2.631zm-2.34-8.767c-.594-.495-1.42-.742-2.48-.742H5.853v5.74h2.781c1.039 0 1.856-.257 2.45-.772.593-.515.89-1.217.89-2.106 0-.919-.297-1.625-.89-2.12z"></path> <path fill="url(#a)" d="M179.986 21.796v5.066h-17.115V5.369h16.968v5.066h-11.184v3.252h10.124v4.706h-10.124v3.403h11.331zm-33.14 5.216l-8.565-21.643h6.549l4.782 13.609 4.798-13.609h6.416l-8.55 21.643h-5.43zM130.247 5.369h5.842v21.493h-5.842V5.369zm-18.675 0h5.843v16.262h10.227v5.231h-16.07V5.369zM71.426 26.862h-5.842v-8.049L57.563 5.369h6.667l4.311 7.838 4.356-7.838h6.549l-8.02 13.354v8.139zm-16.938 0l-1.545-3.837h-8.138l-1.501 3.837h-6.151l8.991-21.643h5.636l8.977 21.643h-6.269zm-5.577-14.584l-2.384 6.115h4.738l-2.354-6.115zM20.289 5.369h5.842v16.262h10.227v5.231H20.289V5.369zm-6.865 14.455c-1.349.575-2.907.863-4.673.863H5.853v6.175H.01V5.369h9.036c2.688 0 4.821.669 6.401 2.007s2.369 3.196 2.369 5.574c0 1.65-.395 3.064-1.184 4.243-.79 1.18-1.86 2.057-3.208 2.631zm-2.34-8.767c-.594-.495-1.42-.742-2.48-.742H5.853v5.74h2.781c1.039 0 1.856-.257 2.45-.772.593-.515.89-1.217.89-2.106 0-.919-.297-1.625-.89-2.12z"></path> <path fill="#FFF" fill-rule="evenodd" d="M94 32c-8.837 0-16-7.164-16-16 0-8.837 7.163-16 16-16 8.836 0 16 7.163 16 16 0 8.836-7.164 16-16 16zm7.994-9.928h-8.353l3.471-2.576a24.182 24.182 0 0 0 2.031-1.67 11.287 11.287 0 0 0 1.433-1.632 6.122 6.122 0 0 0 .931-1.918 8.44 8.44 0 0 0 .289-2.284c0-2.07-.686-3.751-2.059-5.044-1.372-1.293-3.16-1.939-5.362-1.939-1.872 0-3.422.373-4.65 1.117-1.227.746-2.419 1.929-3.576 3.551l3.781 3.349c.818-.999 1.528-1.708 2.13-2.127.602-.42 1.233-.629 1.891-.629.677 0 1.221.195 1.63.584.409.389.614.919.614 1.587 0 .65-.196 1.267-.588 1.851-.393.585-1.065 1.257-2.019 2.016l-7.595 6.144v4.535h16.001v-4.915z"></path> </svg>